<svg id="Logo" xmlns="http://www.w3.org/2000/svg" viewBox="0 0 623.93 108.14"><title>logo_PhpStorm</title><rect y="3.66" width="85.04" height="85.04"/><path d="M145.95,160.19h8.71c5.08,0,8.16,3,8.16,7.37v0.06c0,4.93-3.84,7.49-8.62,7.49h-3.56v6.39h-4.69V160.19Zm8.4,10.75c2.35,0,3.71-1.4,3.71-3.23v-0.06c0-2.1-1.46-3.23-3.8-3.23h-3.62v6.52h3.71Z" transform="translate(-138.04 -145.93)" fill="#fff"/><path d="M164,178.48l2.78-3.33a9.81,9.81,0,0,0,6.38,2.59c1.93,0,3.09-.76,3.09-2v-0.06c0-1.19-.73-1.8-4.31-2.72-4.31-1.1-7.09-2.29-7.09-6.53v-0.07c0-3.87,3.12-6.44,7.48-6.44a12.37,12.37,0,0,1,7.94,2.72l-2.44,3.54a10,10,0,0,0-5.56-2.11c-1.8,0-2.75.82-2.75,1.86V166c0,1.41.92,1.87,4.61,2.81,4.34,1.13,6.78,2.69,6.78,6.41v0.06c0,4.25-3.24,6.62-7.85,6.62a13.61,13.61,0,0,1-9.07-3.42" transform="translate(-138.04 -145.93)" fill="#fff"/><rect x="7.88" y="72.76" width="31.89" height="5.31" fill="#fff"/><path d="M244.14,149.58h34.75c20.29,0,32.56,12,32.56,29.4v0.24c0,19.68-15.31,29.89-34.39,29.89H262.85v25.52H244.14V149.58Zm33.54,42.89c9.36,0,14.82-5.59,14.82-12.88v-0.24c0-8.38-5.83-12.88-15.19-12.88H262.85v26h14.82Z" transform="translate(-138.04 -145.93)"/><path d="M314.73,145.93H333.2v32.81c4.25-5.47,9.72-10.45,19.08-10.45,14,0,22.11,9.23,22.11,24.18v42.16H355.92V198.3c0-8.75-4.13-13.24-11.18-13.24s-11.54,4.5-11.54,13.24v36.33H314.73v-88.7Z" transform="translate(-138.04 -145.93)"/><path d="M378.27,169.5h18.47v9.36c4.5-6.08,10.69-10.57,20.29-10.57,15.19,0,29.65,11.91,29.65,33.66v0.24c0,21.75-14.22,33.66-29.65,33.66-9.84,0-15.92-4.5-20.29-9.72v27.95H378.27V169.5Zm49.94,32.69v-0.24c0-10.81-7.29-18-15.92-18s-15.8,7.17-15.8,18v0.24c0,10.81,7.17,18,15.8,18S428.21,213.12,428.21,202.19Z" transform="translate(-138.04 -145.93)"/><path d="M443.88,222.24L454.93,209c7.65,6.32,15.67,10.33,25.39,10.33,7.65,0,12.27-3,12.27-8v-0.24c0-4.74-2.92-7.17-17.13-10.81-17.13-4.37-28.19-9.11-28.19-26V174c0-15.43,12.39-25.64,29.77-25.64a49.24,49.24,0,0,1,31.59,10.81l-9.72,14.09c-7.53-5.22-14.95-8.38-22.11-8.38s-10.94,3.28-10.94,7.41v0.24c0,5.59,3.64,7.41,18.35,11.18,17.25,4.5,27,10.69,27,25.52v0.24c0,16.89-12.88,26.37-31.23,26.37A54.12,54.12,0,0,1,443.88,222.24Z" transform="translate(-138.04 -145.93)"/><path d="M515.44,216.16V185.3h-7.78V169.5h7.78V152.86h18.47V169.5h15.31v15.8H533.91v27.83c0,4.25,1.82,6.32,6,6.32a18.78,18.78,0,0,0,9.11-2.31V232a27.23,27.23,0,0,1-14.58,3.77C523.1,235.72,515.44,231.23,515.44,216.16Z" transform="translate(-138.04 -145.93)"/><path d="M548,202.43v-0.24c0-18.71,15.07-33.9,35.36-33.9s35.12,14.95,35.12,33.66v0.24c0,18.71-15.07,33.9-35.36,33.9S548,221.14,548,202.43Zm52.25,0v-0.24c0-9.6-6.93-18-17.13-18-10.57,0-16.89,8.14-16.89,17.74v0.24c0,9.6,6.93,18,17.13,18C593.93,220.17,600.25,212,600.25,202.43Z" transform="translate(-138.04 -145.93)"/><path d="M620.9,169.5h18.47v13.12c3.77-9,9.84-14.82,20.78-14.34v19.32h-1c-12.27,0-19.81,7.41-19.81,23v24.06H620.9V169.5Z" transform="translate(-138.04 -145.93)"/><path d="M662.57,169.5H681v9.23c4.25-5.47,9.84-10.45,19.2-10.45,8.51,0,14.95,3.77,18.35,10.33,5.71-6.68,12.52-10.33,21.38-10.33,13.73,0,22,8.26,22,23.94v42.41H743.5V198.3c0-8.75-3.89-13.24-10.81-13.24s-11.18,4.5-11.18,13.24v36.33H703V198.3c0-8.75-3.89-13.24-10.81-13.24S681,189.55,681,198.3v36.33H662.57V169.5Z" transform="translate(-138.04 -145.93)"/></svg>